<svg viewBox="0 0 50 50"> <style>.left{animation: left 2s both;}.right{animation: right 2s both;}.reverse{animation-direction: reverse;}@keyframes left{0% {transform: scaleX(0.4);transform-origin: 0% 0%;}100% {transform: scaleX(1);transform-origin: 0% 0%;fill: #9da0a2}}@keyframes right{0%{transform:scaleX(.4);transform-origin:100% 100%}100%{transform:scaleX(1);transform-origin:100% 100%;fill: #9da0a2}}</style>
                <path fill="#9da0a2" d="M47.59,1.93H2.36c-0.78,0-1.41,0.27-1.41,0.61v2.05c0,0.34,0.63,0.61,1.41,0.61h45.23C48.37,5.2,49,4.93,49,4.59V2.54C49,2.2,48.37,1.93,47.59,1.93z"/>
                <path class="${curtain_left}" d="M4.38,7.61V45.2c0,1.06,0.47,2.04,1.25,2.64c0.79,0.6,1.78,0.73,2.67,0.34c1.62-0.7,3.42-0.73,5.07-0.11l0.22,0.08c1.8,0.69,3.74,0.8,5.6,0.33l4.04-1.03c0.54-0.14,1.09-0.21,1.65-0.21V6.05H5.79C5.01,6.05,4.38,6.75,4.38,7.61z" fill="#ebc000"/>
                <path class="${curtain_right}" d="M43.97,6.05H24.88v41.21c0.55,0,1.11,0.07,1.65,0.21l4.04,1.03c1.86,0.47,3.79,0.36,5.6-0.33l0.22-0.08c1.65-0.63,3.45-0.59,5.07,0.11c0.89,0.38,1.89,0.25,2.67-0.34c0.79-0.6,1.25-1.58,1.25-2.64V7.61C45.38,6.75,44.75,6.05,43.97,6.05z" fill="#ebc000"/></svg>