<svg id="Layer_1" enable-background="new 0 0 256 256" height="512" viewBox="0 0 256 256" width="512" xmlns="http://www.w3.org/2000/svg"><g><g fill="#f9b087"><path d="m97.951 97.546h-19.199c-1.381 0-2.5-1.119-2.5-2.5v-19.199c0-1.381 1.119-2.5 2.5-2.5h19.199c1.381 0 2.5 1.119 2.5 2.5v19.199c0 1.381-1.119 2.5-2.5 2.5zm-16.699-5h14.199v-14.199h-14.199z"/><path d="m97.951 137.292h-19.199c-1.381 0-2.5-1.119-2.5-2.5v-19.199c0-1.381 1.119-2.5 2.5-2.5h19.199c1.381 0 2.5 1.119 2.5 2.5v19.199c0 1.381-1.119 2.5-2.5 2.5zm-16.699-5h14.199v-14.199h-14.199z"/><path d="m97.951 177.038h-19.199c-1.381 0-2.5-1.119-2.5-2.5v-19.199c0-1.381 1.119-2.5 2.5-2.5h19.199c1.381 0 2.5 1.119 2.5 2.5v19.199c0 1.381-1.119 2.5-2.5 2.5zm-16.699-5h14.199v-14.199h-14.199z"/><path d="m97.951 216.784h-19.199c-1.381 0-2.5-1.119-2.5-2.5v-19.199c0-1.381 1.119-2.5 2.5-2.5h19.199c1.381 0 2.5 1.119 2.5 2.5v19.199c0 1.381-1.119 2.5-2.5 2.5zm-16.699-5h14.199v-14.199h-14.199z"/></g><g fill="#846f75"><path d="m111.624 56.595h-46.545c-1.381 0-2.5 1.119-2.5 2.5v173.917c0 1.381 1.119 2.5 2.5 2.5h46.545c1.381 0 2.5-1.119 2.5-2.5v-173.917c0-1.381-1.119-2.5-2.5-2.5zm-2.5 173.917h-41.545v-168.917h41.545z"/><path d="m177.902 20.488c-8.558 0-15.52 6.961-15.52 15.519v183.986c0 5.8-4.719 10.519-10.519 10.519s-10.519-4.719-10.519-10.519v-185.571c0-7.683-6.251-13.934-13.935-13.934h-27.624c-7.683 0-13.934 6.25-13.934 13.934v.236h-8.044c-1.381 0-2.5 1.119-2.5 2.5v13.688c0 1.381 1.119 2.5 2.5 2.5s2.5-1.119 2.5-2.5v-11.188h16.088v11.188c0 1.381 1.119 2.5 2.5 2.5s2.5-1.119 2.5-2.5v-13.688c0-1.381-1.119-2.5-2.5-2.5h-8.044v-.236c0-4.926 4.008-8.934 8.934-8.934h27.626c4.927 0 8.935 4.008 8.935 8.934v185.571c0 8.557 6.962 15.519 15.519 15.519s15.519-6.961 15.519-15.519v-183.986c0-5.8 4.719-10.519 10.52-10.519 5.8 0 10.519 4.719 10.519 10.519v197.005c0 1.381 1.119 2.5 2.5 2.5s2.5-1.119 2.5-2.5v-197.005c-.002-8.557-6.964-15.519-15.521-15.519z"/></g></g></svg>