<svg id="Capa_1" enable-background="new 0 0 512 512" height="512" viewBox="0 0 512 512" width="512" xmlns="http://www.w3.org/2000/svg"><g><path d="m378.607 357.394c-5.857-5.857-15.355-5.857-21.213 0-5.858 5.858-5.858 15.355 0 21.213l32 32c2.929 2.929 6.767 4.393 10.606 4.393 13.244 0 20.083-16.13 10.606-25.607z"/><path d="m324.269 399.71c-2.835-7.785-11.443-11.799-19.227-8.965-7.784 2.833-11.798 11.441-8.965 19.226l15.479 42.526c2.218 6.091 7.97 9.874 14.097 9.874 10.353 0 17.666-10.321 14.095-20.135z"/><path d="m452.495 311.556-42.525-15.478c-7.78-2.833-16.393 1.18-19.226 8.965s1.181 16.392 8.966 19.226l42.525 15.478c7.799 2.839 16.398-1.197 19.226-8.965 2.833-7.785-1.18-16.392-8.966-19.226z"/><path d="m133.394 154.607c5.858 5.858 15.355 5.858 21.213 0s5.858-15.355 0-21.213l-32-32c-5.857-5.857-15.355-5.857-21.213 0-5.858 5.858-5.858 15.355 0 21.213z"/><path d="m187.732 112.291c2.825 7.76 11.417 11.807 19.227 8.965 7.784-2.833 11.798-11.441 8.965-19.226l-15.479-42.526c-2.834-7.785-11.443-11.798-19.227-8.965s-11.798 11.441-8.965 19.226z"/><path d="m59.505 200.444c45.827 16.68 44.024 16.387 47.654 16.387 6.126 0 11.88-3.783 14.097-9.874 2.833-7.785-1.181-16.392-8.966-19.226l-42.525-15.478c-7.78-2.833-16.392 1.18-19.226 8.965-2.833 7.785 1.181 16.393 8.966 19.226z"/><path d="m22.57 412.217-18.176 18.177c-5.858 5.858-5.858 15.355 0 21.213l56 56c5.857 5.857 15.355 5.858 21.213 0l18.177-18.177z"/><path d="m489.454 99.759 18.152-18.152c5.858-5.858 5.858-15.355 0-21.213l-56-56c-5.857-5.858-15.355-5.858-21.213 0l-18.153 18.153z"/><path d="m391.025 43.762c-17.271-10.282-39.997-8.003-54.844 6.844l-285.574 285.574c-15.095 15.094-16.97 37.784-6.944 54.703l77.41 77.41c17.324 10.255 39.975 7.872 54.747-6.9l285.574-285.573c15.127-15.126 16.98-37.883 6.88-54.815-77.504-77.503-77.149-77.336-77.249-77.243z"/></g></svg>