<svg xmlns="http://www.w3.org/2000/svg" viewBox="0 0 33.58 33.58"><defs><style>.cls-1{fill:#f9b087;}</style></defs><g id="레이어_2" data-name="레이어 2"><g id="레이어_1-2" data-name="레이어 1"><path class="cls-1" d="M28.44,9.06,24.52,5.14a.71.71,0,0,1,0-1L28.44.21a.72.72,0,0,1,1,0l3.91,3.92a.71.71,0,0,1,0,1L29.46,9.06A.72.72,0,0,1,28.44,9.06ZM26.05,4.64,29,7.53l2.89-2.89L29,1.74Z"/><path class="cls-1" d="M20.33,17.16l-3.91-3.91a.72.72,0,0,1,0-1l3.91-3.92a.72.72,0,0,1,1,0l3.92,3.92a.72.72,0,0,1,0,1l-3.92,3.91A.72.72,0,0,1,20.33,17.16ZM18,12.74l2.89,2.89,2.9-2.89-2.9-2.9Z"/><path class="cls-1" d="M12.23,25.27,8.31,21.35a.72.72,0,0,1,0-1l3.92-3.91a.72.72,0,0,1,1,0l3.91,3.91a.72.72,0,0,1,0,1l-3.91,3.92A.72.72,0,0,1,12.23,25.27ZM9.84,20.84l2.9,2.9,2.89-2.9L12.74,18Z"/><path class="cls-1" d="M4.13,33.37.21,29.46a.72.72,0,0,1,0-1l3.92-3.92a.71.71,0,0,1,1,0l3.92,3.92a.72.72,0,0,1,0,1L5.14,33.37A.71.71,0,0,1,4.13,33.37ZM1.74,29l2.9,2.89L7.53,29l-2.89-2.9Z"/></g></g></svg>